<?xml version="1.0" encoding="utf-8"?>
<!-- Generator: Adobe Illustrator 23.1.0, SVG Export Plug-In . SVG Version: 6.00 Build 0)  -->
<svg version="1.1" xmlns="http://www.w3.org/2000/svg" xmlns:xlink="http://www.w3.org/1999/xlink" x="0px" y="0px"
	 viewBox="0 0 255.12 155.91" style="enable-background:new 0 0 255.12 155.91;" xml:space="preserve">
<style type="text/css">
	.st0{fill:url(#SVGID_1_);}
	.st1{fill:white;}
	.st2{display:none;}
	.st3{display:inline;fill:#00AEEF;}
</style>
<g id="Digital_Print">
	<linearGradient id="SVGID_1_" gradientUnits="userSpaceOnUse" x1="34.9101" y1="65.359" x2="220.208" y2="65.359">
		<stop  offset="0" style="stop-color:#EF4136"/>
		<stop  offset="1" style="stop-color:#662D91"/>
	</linearGradient>
	<path class="st0" d="M118.46,47.48H86.43c-1.02,0-1.91-0.43-2.64-1.28c-0.73-0.85-1.1-1.87-1.1-3.05c0-1.18,0.37-2.2,1.1-3.05
		c0.73-0.85,1.62-1.28,2.64-1.28h32.03c1.02,0,1.91,0.43,2.64,1.28c0.73,0.85,1.1,1.87,1.1,3.05c0,1.18-0.37,2.2-1.1,3.05
		C120.37,47.05,119.48,47.48,118.46,47.48z M102.45,53.63c-1.02,0-1.91,0.43-2.64,1.28c-0.73,0.85-1.1,1.87-1.1,3.05v29.6
		c0,1.18,0.37,2.21,1.1,3.05c0.73,0.85,1.62,1.28,2.64,1.28c1.02,0,1.91-0.43,2.64-1.28c0.73-0.85,1.1-1.87,1.1-3.05v-29.6
		c0-1.18-0.37-2.21-1.1-3.05C104.36,54.06,103.47,53.63,102.45,53.63z M48.26,47.48h22.42c1.02,0,1.91-0.43,2.64-1.28
		c0.73-0.85,1.1-1.87,1.1-3.05c0-1.18-0.37-2.2-1.1-3.05c-0.73-0.85-1.62-1.28-2.64-1.28H48.26c-3.68,0-6.86,1.52-9.45,4.51
		c-2.59,3-3.91,6.67-3.91,10.91c0,4.25,1.31,7.92,3.91,10.91c2.59,3,5.77,4.51,9.45,4.51h12.81c1.64,0,3,0.65,4.15,1.98
		c1.15,1.34,1.71,2.9,1.71,4.8c0,1.89-0.56,3.46-1.71,4.79c-1.15,1.33-2.51,1.98-4.15,1.98H38.65c-1.02,0-1.91,0.43-2.64,1.27
		c-0.73,0.85-1.1,1.87-1.1,3.05c0,1.18,0.37,2.21,1.1,3.05c0.73,0.85,1.62,1.28,2.64,1.28h22.42c3.68,0,6.86-1.52,9.45-4.51
		c2.59-2.99,3.91-6.67,3.91-10.91c0-4.25-1.31-7.92-3.91-10.91c-2.59-2.99-5.77-4.51-9.45-4.51H48.26c-1.64,0-2.99-0.65-4.15-1.98
		c-1.15-1.33-1.72-2.9-1.72-4.79c0-1.89,0.56-3.46,1.72-4.79C45.27,48.13,46.63,47.48,48.26,47.48z M168.87,38.83h-32.03
		c-1.02,0-1.91,0.43-2.64,1.28c-0.73,0.85-1.1,1.87-1.1,3.05c0,1.18,0.37,2.21,1.1,3.05c0.73,0.85,1.62,1.28,2.64,1.28h32.03
		c1.02,0,1.91-0.43,2.64-1.28c0.73-0.85,1.1-1.87,1.1-3.05c0-1.18-0.37-2.2-1.1-3.05C170.78,39.26,169.89,38.83,168.87,38.83z
		 M216.3,43.34c-2.59-2.99-5.77-4.51-9.45-4.51h-22.42c-1.02,0-1.91,0.43-2.64,1.28c-0.73,0.85-1.1,1.87-1.1,3.05
		c0,1.18,0.37,2.2,1.1,3.05c0.73,0.85,1.62,1.28,2.64,1.28h22.42c1.64,0,2.99,0.65,4.15,1.98c1.15,1.33,1.72,2.9,1.72,4.79
		c0,1.89-0.56,3.46-1.72,4.79c-1.15,1.33-2.51,1.98-4.15,1.98h-29.94c-1.02,0-1.91,0.43-2.64,1.28c-0.73,0.85-1.1,1.87-1.1,3.05
		v22.2c0,1.18,0.37,2.21,1.1,3.05c0.73,0.85,1.62,1.28,2.64,1.28c1.02,0,1.91-0.43,2.64-1.28c0.73-0.85,1.1-1.87,1.1-3.05V69.68
		h26.2c3.68,0,6.86-1.52,9.45-4.51c2.59-2.99,3.91-6.67,3.91-10.91C220.21,50.01,218.9,46.34,216.3,43.34z M150.31,83.24h-32.03
		c-1.02,0-1.91,0.43-2.64,1.27c-0.73,0.85-1.1,1.87-1.1,3.05c0,1.18,0.37,2.21,1.1,3.05c0.73,0.85,1.62,1.28,2.64,1.28h32.03
		c1.02,0,1.91-0.43,2.64-1.28c0.73-0.85,1.1-1.87,1.1-3.05c0-1.18-0.37-2.2-1.1-3.05C152.21,83.66,151.33,83.24,150.31,83.24z
		 M159.68,61.03h-32.03c-1.02,0-1.91,0.43-2.64,1.28c-0.73,0.85-1.1,1.87-1.1,3.05c0,1.18,0.37,2.21,1.1,3.05
		c0.73,0.85,1.62,1.28,2.64,1.28h32.03c1.02,0,1.91-0.43,2.64-1.28c0.73-0.84,1.1-1.87,1.1-3.05c0-1.18-0.37-2.2-1.1-3.05
		C161.59,61.46,160.7,61.03,159.68,61.03z"/>
	<g>
		<path class="st1" d="M35.28,112.69c0-0.59,0.1-1.11,0.29-1.59c0.2-0.47,0.47-0.88,0.82-1.21c0.35-0.33,0.77-0.59,1.25-0.77
			c0.48-0.18,1.01-0.27,1.57-0.27c0.57,0,1.09,0.09,1.58,0.27c0.48,0.18,0.89,0.44,1.24,0.77c0.35,0.33,0.62,0.74,0.82,1.21
			c0.2,0.47,0.29,1,0.29,1.59c0,0.58-0.1,1.11-0.29,1.58c-0.2,0.47-0.47,0.88-0.82,1.21c-0.35,0.33-0.76,0.59-1.24,0.77
			c-0.48,0.18-1.01,0.27-1.58,0.27c-0.57,0-1.09-0.09-1.57-0.27c-0.48-0.18-0.9-0.44-1.25-0.77c-0.35-0.33-0.62-0.74-0.82-1.21
			C35.38,113.81,35.28,113.28,35.28,112.69z M36.95,112.69c0,0.34,0.05,0.65,0.16,0.94c0.11,0.29,0.26,0.53,0.46,0.74
			c0.2,0.21,0.44,0.37,0.72,0.49c0.28,0.11,0.59,0.18,0.93,0.18c0.34,0,0.65-0.06,0.93-0.18c0.28-0.12,0.51-0.28,0.72-0.49
			c0.2-0.21,0.35-0.45,0.46-0.74c0.11-0.28,0.16-0.6,0.16-0.94c0-0.34-0.05-0.65-0.16-0.94c-0.11-0.29-0.26-0.54-0.46-0.74
			c-0.2-0.21-0.44-0.37-0.72-0.49c-0.28-0.11-0.59-0.18-0.93-0.18c-0.34,0-0.65,0.06-0.93,0.18c-0.28,0.12-0.52,0.28-0.72,0.49
			c-0.2,0.21-0.35,0.46-0.46,0.74C37.01,112.05,36.95,112.36,36.95,112.69z"/>
		<path class="st1" d="M51.44,109.05h2.18l3.1,5.06h0.02v-5.06h1.61v7.29h-2.1l-3.18-5.19h-0.02v5.19h-1.61V109.05z"/>
		<path class="st1" d="M67.09,109.05h4.95v1.48h-3.35v1.36h3.16v1.48h-3.16v1.48h3.53v1.48h-5.14V109.05z"/>
		<path class="st1" d="M94.55,110.83c-0.13-0.17-0.31-0.29-0.53-0.36c-0.22-0.08-0.44-0.12-0.63-0.12c-0.11,0-0.24,0.01-0.36,0.04
			c-0.12,0.03-0.24,0.07-0.35,0.13c-0.11,0.06-0.2,0.14-0.27,0.23c-0.07,0.1-0.1,0.21-0.1,0.35c0,0.22,0.08,0.39,0.25,0.51
			c0.16,0.12,0.37,0.22,0.62,0.3c0.25,0.08,0.52,0.16,0.81,0.25c0.29,0.08,0.56,0.2,0.81,0.35c0.25,0.15,0.46,0.36,0.62,0.61
			c0.17,0.25,0.25,0.59,0.25,1.02c0,0.41-0.07,0.76-0.23,1.06c-0.15,0.3-0.35,0.55-0.61,0.75c-0.26,0.2-0.55,0.35-0.9,0.45
			c-0.34,0.09-0.7,0.14-1.07,0.14c-0.47,0-0.91-0.07-1.32-0.22c-0.4-0.14-0.78-0.38-1.13-0.7l1.14-1.26
			c0.16,0.22,0.37,0.39,0.62,0.51c0.25,0.12,0.51,0.18,0.78,0.18c0.13,0,0.26-0.02,0.4-0.05c0.14-0.03,0.25-0.08,0.36-0.14
			c0.11-0.06,0.19-0.14,0.26-0.24c0.07-0.1,0.1-0.21,0.1-0.34c0-0.22-0.08-0.39-0.25-0.52c-0.17-0.13-0.38-0.23-0.63-0.32
			c-0.25-0.09-0.53-0.18-0.82-0.27c-0.3-0.09-0.57-0.21-0.82-0.36c-0.26-0.15-0.47-0.35-0.63-0.6c-0.17-0.25-0.25-0.57-0.25-0.98
			c0-0.39,0.08-0.74,0.23-1.03c0.16-0.3,0.36-0.54,0.62-0.74c0.26-0.2,0.55-0.35,0.89-0.45c0.34-0.1,0.68-0.15,1.04-0.15
			c0.41,0,0.81,0.06,1.19,0.18c0.38,0.12,0.73,0.31,1.04,0.59L94.55,110.83z"/>
		<path class="st1" d="M105.47,110.47h-2.08v-1.42h5.77v1.42h-2.08v5.87h-1.61V110.47z"/>
		<path class="st1" d="M117.22,109.05h4.95v1.48h-3.35v1.36h3.16v1.48h-3.16v1.48h3.53v1.48h-5.14V109.05z"/>
		<path class="st1" d="M130.84,109.05h2.71c0.38,0,0.74,0.03,1.07,0.1s0.63,0.19,0.88,0.35c0.25,0.17,0.45,0.4,0.6,0.68
			c0.15,0.28,0.22,0.64,0.22,1.07c0,0.43-0.07,0.78-0.21,1.07c-0.14,0.29-0.32,0.52-0.57,0.69c-0.24,0.17-0.53,0.29-0.85,0.36
			c-0.33,0.07-0.69,0.11-1.07,0.11h-1.17v2.84h-1.61V109.05z M132.45,112.14h1.07c0.14,0,0.28-0.01,0.42-0.04
			c0.14-0.03,0.26-0.07,0.36-0.14c0.11-0.06,0.19-0.16,0.26-0.27c0.07-0.11,0.1-0.26,0.1-0.43c0-0.18-0.04-0.33-0.13-0.45
			c-0.09-0.11-0.2-0.2-0.33-0.26c-0.14-0.06-0.28-0.1-0.45-0.12c-0.16-0.02-0.32-0.03-0.47-0.03h-0.82V112.14z"/>
		<path class="st1" d="M157.17,109.05h1.33l3.17,7.29h-1.81l-0.63-1.54h-2.83l-0.61,1.54h-1.77L157.17,109.05z M157.78,111.17
			l-0.88,2.27h1.78L157.78,111.17z"/>
		<path class="st1" d="M169.59,109.05h1.61v2.72h3.12v-2.72h1.61v7.29h-1.61v-3.15h-3.12v3.15h-1.61V109.05z"/>
		<path class="st1" d="M184.66,109.05h4.95v1.48h-3.35v1.36h3.16v1.48h-3.16v1.48h3.53v1.48h-5.14V109.05z"/>
		<path class="st1" d="M200.68,109.05h1.33l3.17,7.29h-1.81l-0.63-1.54h-2.83l-0.61,1.54h-1.77L200.68,109.05z M201.3,111.17
			l-0.88,2.27h1.78L201.3,111.17z"/>
		<path class="st1" d="M213.11,109.05h2.41c0.58,0,1.14,0.07,1.66,0.2c0.53,0.13,0.98,0.34,1.37,0.63c0.39,0.29,0.7,0.67,0.93,1.14
			c0.23,0.47,0.34,1.03,0.34,1.7c0,0.59-0.11,1.11-0.34,1.56c-0.22,0.45-0.52,0.83-0.9,1.13c-0.38,0.3-0.82,0.54-1.31,0.7
			c-0.49,0.16-1.01,0.24-1.55,0.24h-2.63V109.05z M214.71,114.85h0.84c0.37,0,0.72-0.04,1.03-0.11c0.32-0.08,0.59-0.2,0.83-0.38
			c0.24-0.18,0.42-0.41,0.55-0.69c0.14-0.28,0.2-0.63,0.2-1.05c0-0.36-0.07-0.67-0.2-0.93c-0.13-0.26-0.31-0.48-0.54-0.65
			c-0.23-0.17-0.49-0.3-0.8-0.38c-0.3-0.09-0.63-0.13-0.96-0.13h-0.95V114.85z"/>
	</g>
</g>
<g id="Spot_Varnish" class="st2">
	<path class="st3" d="M118.49,57.58H96.71c-0.69,0-1.3-0.29-1.79-0.87c-0.5-0.58-0.75-1.27-0.75-2.07c0-0.8,0.25-1.5,0.75-2.07
		c0.5-0.57,1.1-0.87,1.79-0.87h21.78c0.69,0,1.3,0.29,1.79,0.87c0.5,0.58,0.75,1.27,0.75,2.07c0,0.8-0.25,1.5-0.75,2.07
		C119.79,57.29,119.18,57.58,118.49,57.58z M107.6,61.76c-0.69,0-1.3,0.29-1.79,0.87c-0.5,0.58-0.75,1.27-0.75,2.07v20.13
		c0,0.8,0.25,1.5,0.75,2.08c0.5,0.58,1.1,0.87,1.79,0.87c0.69,0,1.3-0.29,1.79-0.87c0.5-0.58,0.75-1.27,0.75-2.08V64.71
		c0-0.8-0.25-1.5-0.75-2.07C108.9,62.06,108.29,61.76,107.6,61.76z M70.76,57.58H86c0.69,0,1.3-0.29,1.79-0.87
		c0.5-0.58,0.75-1.27,0.75-2.07c0-0.8-0.25-1.5-0.75-2.07c-0.5-0.57-1.1-0.87-1.79-0.87H70.76c-2.5,0-4.66,1.03-6.42,3.07
		c-1.76,2.04-2.66,4.53-2.66,7.42c0,2.89,0.89,5.38,2.66,7.42c1.76,2.04,3.92,3.07,6.42,3.07h8.71c1.11,0,2.04,0.44,2.82,1.35
		c0.79,0.91,1.17,1.97,1.17,3.26c0,1.29-0.38,2.35-1.17,3.26c-0.79,0.91-1.71,1.35-2.82,1.35H64.23c-0.69,0-1.3,0.29-1.8,0.87
		c-0.5,0.58-0.75,1.27-0.75,2.07c0,0.8,0.25,1.5,0.75,2.08c0.5,0.58,1.1,0.87,1.8,0.87h15.24c2.5,0,4.66-1.03,6.42-3.07
		c1.76-2.04,2.66-4.53,2.66-7.42c0-2.89-0.89-5.39-2.66-7.42c-1.76-2.04-3.92-3.07-6.42-3.07h-8.71c-1.11,0-2.04-0.44-2.82-1.35
		c-0.79-0.91-1.17-1.97-1.17-3.26c0-1.29,0.38-2.35,1.17-3.26C68.72,58.02,69.65,57.58,70.76,57.58z M152.77,51.7h-21.78
		c-0.69,0-1.3,0.29-1.8,0.87c-0.5,0.58-0.75,1.27-0.75,2.07c0,0.8,0.25,1.5,0.75,2.07c0.5,0.57,1.1,0.87,1.8,0.87h21.78
		c0.69,0,1.3-0.29,1.8-0.87c0.5-0.58,0.75-1.27,0.75-2.07c0-0.8-0.25-1.5-0.75-2.07C154.06,51.99,153.46,51.7,152.77,51.7z
		 M185.02,54.77c-1.76-2.04-3.92-3.07-6.42-3.07h-15.25c-0.69,0-1.3,0.29-1.79,0.87c-0.5,0.58-0.75,1.27-0.75,2.07
		c0,0.8,0.25,1.5,0.75,2.07c0.5,0.57,1.1,0.87,1.79,0.87h15.25c1.11,0,2.04,0.44,2.82,1.35c0.79,0.91,1.17,1.97,1.17,3.26
		c0,1.29-0.38,2.35-1.17,3.26c-0.79,0.91-1.71,1.35-2.82,1.35h-20.36c-0.69,0-1.3,0.29-1.8,0.87c-0.5,0.58-0.75,1.27-0.75,2.07v15.1
		c0,0.8,0.25,1.5,0.75,2.08c0.5,0.58,1.1,0.87,1.8,0.87c0.69,0,1.3-0.29,1.79-0.87c0.5-0.58,0.75-1.27,0.75-2.08V72.68h17.82
		c2.5,0,4.66-1.03,6.42-3.07c1.76-2.04,2.66-4.53,2.66-7.42C187.67,59.3,186.78,56.81,185.02,54.77z M140.14,81.89h-21.78
		c-0.69,0-1.3,0.29-1.79,0.87c-0.5,0.58-0.75,1.27-0.75,2.07c0,0.8,0.25,1.5,0.75,2.08c0.5,0.58,1.1,0.87,1.79,0.87h21.78
		c0.69,0,1.3-0.29,1.79-0.87c0.5-0.58,0.75-1.27,0.75-2.08c0-0.8-0.25-1.5-0.75-2.07C141.44,82.18,140.84,81.89,140.14,81.89z
		 M146.52,66.8h-21.78c-0.69,0-1.3,0.29-1.8,0.87c-0.5,0.58-0.75,1.27-0.75,2.07c0,0.8,0.25,1.5,0.75,2.07
		c0.5,0.58,1.1,0.87,1.8,0.87h21.78c0.7,0,1.3-0.29,1.8-0.87c0.5-0.57,0.75-1.27,0.75-2.07c0-0.8-0.25-1.5-0.75-2.07
		C147.81,67.09,147.21,66.8,146.52,66.8z"/>
	<path class="st3" d="M66.16,519.34H53.9c-0.39,0-0.73-0.16-1.01-0.49c-0.28-0.32-0.42-0.72-0.42-1.17c0-0.45,0.14-0.84,0.42-1.16
		c0.28-0.32,0.62-0.49,1.01-0.49h12.26c0.39,0,0.73,0.17,1.01,0.49c0.28,0.32,0.42,0.71,0.42,1.16c0,0.45-0.14,0.85-0.42,1.17
		C66.89,519.17,66.55,519.34,66.16,519.34z M60.03,521.69c-0.39,0-0.73,0.16-1.01,0.49c-0.28,0.32-0.42,0.72-0.42,1.17v11.33
		c0,0.45,0.14,0.85,0.42,1.17c0.28,0.32,0.62,0.49,1.01,0.49c0.39,0,0.73-0.16,1.01-0.49c0.28-0.32,0.42-0.72,0.42-1.17v-11.33
		c0-0.45-0.14-0.84-0.42-1.17C60.76,521.86,60.42,521.69,60.03,521.69z M39.3,519.34h8.58c0.39,0,0.73-0.16,1.01-0.49
		c0.28-0.32,0.42-0.72,0.42-1.17c0-0.45-0.14-0.84-0.42-1.16c-0.28-0.32-0.62-0.49-1.01-0.49H39.3c-1.41,0-2.62,0.58-3.62,1.73
		c-0.99,1.15-1.49,2.55-1.49,4.18s0.5,3.03,1.49,4.17c0.99,1.15,2.21,1.73,3.62,1.73h4.9c0.63,0,1.15,0.25,1.59,0.76
		c0.44,0.51,0.66,1.11,0.66,1.83c0,0.73-0.21,1.32-0.66,1.84c-0.44,0.51-0.96,0.76-1.59,0.76h-8.58c-0.39,0-0.73,0.16-1.01,0.49
		c-0.28,0.32-0.42,0.72-0.42,1.17c0,0.45,0.14,0.85,0.42,1.17c0.28,0.32,0.62,0.49,1.01,0.49h8.58c1.41,0,2.62-0.58,3.62-1.73
		c0.99-1.14,1.49-2.55,1.49-4.18c0-1.62-0.5-3.03-1.49-4.18c-0.99-1.14-2.21-1.73-3.62-1.73h-4.9c-0.63,0-1.15-0.25-1.59-0.76
		c-0.44-0.51-0.66-1.11-0.66-1.83c0-0.72,0.22-1.32,0.66-1.83C38.15,519.59,38.67,519.34,39.3,519.34z M85.45,516.03H73.19
		c-0.39,0-0.73,0.17-1.01,0.49c-0.28,0.32-0.42,0.71-0.42,1.16c0,0.45,0.14,0.85,0.42,1.17c0.28,0.32,0.62,0.49,1.01,0.49h12.26
		c0.39,0,0.73-0.16,1.01-0.49c0.28-0.32,0.42-0.72,0.42-1.17c0-0.45-0.14-0.84-0.42-1.16C86.18,516.19,85.84,516.03,85.45,516.03z
		 M103.6,517.76c-0.99-1.15-2.21-1.73-3.62-1.73H91.4c-0.39,0-0.73,0.17-1.01,0.49c-0.28,0.32-0.42,0.71-0.42,1.16
		c0,0.45,0.14,0.85,0.42,1.17c0.28,0.32,0.62,0.49,1.01,0.49h8.58c0.63,0,1.15,0.25,1.59,0.76c0.44,0.51,0.66,1.11,0.66,1.83
		c0,0.72-0.21,1.32-0.66,1.83c-0.44,0.51-0.96,0.76-1.59,0.76H88.53c-0.39,0-0.73,0.17-1.01,0.49c-0.28,0.32-0.42,0.72-0.42,1.17
		v8.5c0,0.45,0.14,0.85,0.42,1.17c0.28,0.32,0.62,0.49,1.01,0.49c0.39,0,0.73-0.16,1.01-0.49c0.28-0.32,0.42-0.72,0.42-1.17v-6.84
		h10.03c1.41,0,2.62-0.58,3.62-1.73c0.99-1.14,1.49-2.55,1.49-4.17S104.59,518.9,103.6,517.76z M78.35,533.02H66.09
		c-0.39,0-0.73,0.16-1.01,0.49c-0.28,0.32-0.42,0.72-0.42,1.17c0,0.45,0.14,0.85,0.42,1.17c0.28,0.32,0.62,0.49,1.01,0.49h12.26
		c0.39,0,0.73-0.16,1.01-0.49c0.28-0.32,0.42-0.72,0.42-1.17c0-0.45-0.14-0.84-0.42-1.17C79.07,533.18,78.74,533.02,78.35,533.02z
		 M81.93,524.52H69.68c-0.39,0-0.73,0.17-1.01,0.49c-0.28,0.32-0.42,0.72-0.42,1.17c0,0.45,0.14,0.85,0.42,1.17
		c0.28,0.32,0.62,0.49,1.01,0.49h12.25c0.39,0,0.73-0.16,1.01-0.49c0.28-0.32,0.42-0.72,0.42-1.17c0-0.45-0.14-0.84-0.42-1.17
		C82.66,524.69,82.32,524.52,81.93,524.52z"/>
	<path class="st3" d="M66.16,291.35H53.9c-0.39,0-0.73-0.16-1.01-0.49c-0.28-0.32-0.42-0.72-0.42-1.17c0-0.45,0.14-0.84,0.42-1.16
		c0.28-0.32,0.62-0.49,1.01-0.49h12.26c0.39,0,0.73,0.17,1.01,0.49c0.28,0.32,0.42,0.71,0.42,1.16c0,0.45-0.14,0.85-0.42,1.17
		C66.89,291.19,66.55,291.35,66.16,291.35z M60.03,293.7c-0.39,0-0.73,0.16-1.01,0.49c-0.28,0.32-0.42,0.72-0.42,1.17v11.33
		c0,0.45,0.14,0.85,0.42,1.17c0.28,0.32,0.62,0.49,1.01,0.49c0.39,0,0.73-0.16,1.01-0.49c0.28-0.32,0.42-0.72,0.42-1.17v-11.33
		c0-0.45-0.14-0.84-0.42-1.17C60.76,293.87,60.42,293.7,60.03,293.7z M39.3,291.35h8.58c0.39,0,0.73-0.16,1.01-0.49
		c0.28-0.32,0.42-0.72,0.42-1.17c0-0.45-0.14-0.84-0.42-1.16c-0.28-0.32-0.62-0.49-1.01-0.49H39.3c-1.41,0-2.62,0.58-3.62,1.73
		c-0.99,1.15-1.49,2.55-1.49,4.18s0.5,3.03,1.49,4.17c0.99,1.15,2.21,1.73,3.62,1.73h4.9c0.63,0,1.15,0.25,1.59,0.76
		c0.44,0.51,0.66,1.11,0.66,1.83c0,0.73-0.21,1.32-0.66,1.84c-0.44,0.51-0.96,0.76-1.59,0.76h-8.58c-0.39,0-0.73,0.16-1.01,0.49
		c-0.28,0.32-0.42,0.72-0.42,1.17c0,0.45,0.14,0.85,0.42,1.17c0.28,0.32,0.62,0.49,1.01,0.49h8.58c1.41,0,2.62-0.58,3.62-1.73
		c0.99-1.14,1.49-2.55,1.49-4.18c0-1.62-0.5-3.03-1.49-4.18c-0.99-1.14-2.21-1.73-3.62-1.73h-4.9c-0.63,0-1.15-0.25-1.59-0.76
		c-0.44-0.51-0.66-1.11-0.66-1.83c0-0.72,0.22-1.32,0.66-1.83C38.15,291.6,38.67,291.35,39.3,291.35z M85.45,288.04H73.19
		c-0.39,0-0.73,0.17-1.01,0.49c-0.28,0.32-0.42,0.71-0.42,1.16c0,0.45,0.14,0.85,0.42,1.17c0.28,0.32,0.62,0.49,1.01,0.49h12.26
		c0.39,0,0.73-0.16,1.01-0.49c0.28-0.32,0.42-0.72,0.42-1.17c0-0.45-0.14-0.84-0.42-1.16C86.18,288.21,85.84,288.04,85.45,288.04z
		 M103.6,289.77c-0.99-1.15-2.21-1.73-3.62-1.73H91.4c-0.39,0-0.73,0.17-1.01,0.49c-0.28,0.32-0.42,0.71-0.42,1.16
		c0,0.45,0.14,0.85,0.42,1.17c0.28,0.32,0.62,0.49,1.01,0.49h8.58c0.63,0,1.15,0.25,1.59,0.76c0.44,0.51,0.66,1.11,0.66,1.83
		c0,0.72-0.21,1.32-0.66,1.83c-0.44,0.51-0.96,0.76-1.59,0.76H88.53c-0.39,0-0.73,0.17-1.01,0.49c-0.28,0.32-0.42,0.72-0.42,1.17
		v8.5c0,0.45,0.14,0.85,0.42,1.17c0.28,0.32,0.62,0.49,1.01,0.49c0.39,0,0.73-0.16,1.01-0.49c0.28-0.32,0.42-0.72,0.42-1.17v-6.84
		h10.03c1.41,0,2.62-0.58,3.62-1.73c0.99-1.14,1.49-2.55,1.49-4.17S104.59,290.91,103.6,289.77z M78.35,305.03H66.09
		c-0.39,0-0.73,0.16-1.01,0.49c-0.28,0.32-0.42,0.72-0.42,1.17c0,0.45,0.14,0.85,0.42,1.17c0.28,0.32,0.62,0.49,1.01,0.49h12.26
		c0.39,0,0.73-0.16,1.01-0.49c0.28-0.32,0.42-0.72,0.42-1.17c0-0.45-0.14-0.84-0.42-1.17C79.07,305.2,78.74,305.03,78.35,305.03z
		 M81.93,296.54H69.68c-0.39,0-0.73,0.17-1.01,0.49c-0.28,0.32-0.42,0.72-0.42,1.17c0,0.45,0.14,0.85,0.42,1.17
		c0.28,0.32,0.62,0.49,1.01,0.49h12.25c0.39,0,0.73-0.16,1.01-0.49c0.28-0.32,0.42-0.72,0.42-1.17c0-0.45-0.14-0.84-0.42-1.17
		C82.66,296.7,82.32,296.54,81.93,296.54z"/>
	<path class="st3" d="M417.22,291.35h-12.26c-0.39,0-0.73-0.16-1.01-0.49c-0.28-0.32-0.42-0.72-0.42-1.17
		c0-0.45,0.14-0.84,0.42-1.16c0.28-0.32,0.62-0.49,1.01-0.49h12.26c0.39,0,0.73,0.17,1.01,0.49c0.28,0.32,0.42,0.71,0.42,1.16
		c0,0.45-0.14,0.85-0.42,1.17C417.95,291.18,417.61,291.35,417.22,291.35z M411.09,293.7c-0.39,0-0.73,0.16-1.01,0.49
		c-0.28,0.32-0.42,0.72-0.42,1.17v11.33c0,0.45,0.14,0.85,0.42,1.17c0.28,0.32,0.62,0.49,1.01,0.49c0.39,0,0.73-0.16,1.01-0.49
		c0.28-0.32,0.42-0.72,0.42-1.17v-11.33c0-0.45-0.14-0.84-0.42-1.17C411.83,293.87,411.48,293.7,411.09,293.7z M390.36,291.35h8.58
		c0.39,0,0.73-0.16,1.01-0.49c0.28-0.32,0.42-0.72,0.42-1.17c0-0.45-0.14-0.84-0.42-1.16c-0.28-0.32-0.62-0.49-1.01-0.49h-8.58
		c-1.41,0-2.63,0.58-3.62,1.73c-0.99,1.15-1.49,2.55-1.49,4.18s0.5,3.03,1.49,4.17c0.99,1.15,2.21,1.73,3.62,1.73h4.9
		c0.63,0,1.15,0.25,1.59,0.76c0.44,0.51,0.66,1.11,0.66,1.83c0,0.73-0.21,1.32-0.66,1.84c-0.44,0.51-0.96,0.76-1.59,0.76h-8.58
		c-0.39,0-0.73,0.16-1.01,0.49c-0.28,0.32-0.42,0.72-0.42,1.17c0,0.45,0.14,0.85,0.42,1.17c0.28,0.32,0.62,0.49,1.01,0.49h8.58
		c1.41,0,2.62-0.58,3.62-1.73c0.99-1.14,1.49-2.55,1.49-4.18c0-1.62-0.5-3.03-1.49-4.18c-0.99-1.14-2.21-1.73-3.62-1.73h-4.9
		c-0.63,0-1.15-0.25-1.59-0.76c-0.44-0.51-0.66-1.11-0.66-1.83c0-0.72,0.22-1.32,0.66-1.83
		C389.21,291.6,389.73,291.35,390.36,291.35z M436.51,288.04h-12.26c-0.39,0-0.73,0.17-1.01,0.49c-0.28,0.32-0.42,0.71-0.42,1.16
		c0,0.45,0.14,0.85,0.42,1.17c0.28,0.32,0.62,0.49,1.01,0.49h12.26c0.39,0,0.73-0.16,1.01-0.49c0.28-0.32,0.42-0.72,0.42-1.17
		c0-0.45-0.14-0.84-0.42-1.16C437.24,288.2,436.9,288.04,436.51,288.04z M454.66,289.77c-0.99-1.15-2.21-1.73-3.62-1.73h-8.58
		c-0.39,0-0.73,0.17-1.01,0.49c-0.28,0.32-0.42,0.71-0.42,1.16c0,0.45,0.14,0.85,0.42,1.17c0.28,0.32,0.62,0.49,1.01,0.49h8.58
		c0.63,0,1.15,0.25,1.59,0.76s0.66,1.11,0.66,1.83c0,0.72-0.21,1.32-0.66,1.83c-0.44,0.51-0.96,0.76-1.59,0.76h-11.46
		c-0.39,0-0.73,0.17-1.01,0.49c-0.28,0.32-0.42,0.72-0.42,1.17v8.5c0,0.45,0.14,0.85,0.42,1.17c0.28,0.32,0.62,0.49,1.01,0.49
		c0.39,0,0.73-0.16,1.01-0.49c0.28-0.32,0.42-0.72,0.42-1.17v-6.84h10.03c1.41,0,2.62-0.58,3.62-1.73c0.99-1.14,1.49-2.55,1.49-4.17
		S455.65,290.91,454.66,289.77z M429.41,305.03h-12.26c-0.39,0-0.73,0.16-1.01,0.49c-0.28,0.32-0.42,0.72-0.42,1.17
		c0,0.45,0.14,0.85,0.42,1.17c0.28,0.32,0.62,0.49,1.01,0.49h12.26c0.39,0,0.73-0.16,1.01-0.49c0.28-0.32,0.42-0.72,0.42-1.17
		c0-0.45-0.14-0.84-0.42-1.17C430.14,305.19,429.8,305.03,429.41,305.03z M432.99,296.53h-12.25c-0.39,0-0.73,0.17-1.01,0.49
		c-0.28,0.32-0.42,0.72-0.42,1.17c0,0.45,0.14,0.85,0.42,1.17c0.28,0.32,0.62,0.49,1.01,0.49h12.25c0.39,0,0.73-0.16,1.01-0.49
		c0.28-0.32,0.42-0.72,0.42-1.17c0-0.45-0.14-0.84-0.42-1.17C433.73,296.7,433.39,296.53,432.99,296.53z"/>
	<path class="st3" d="M417.22,519.34h-12.26c-0.39,0-0.73-0.16-1.01-0.49c-0.28-0.32-0.42-0.72-0.42-1.17
		c0-0.45,0.14-0.84,0.42-1.16c0.28-0.32,0.62-0.49,1.01-0.49h12.26c0.39,0,0.73,0.17,1.01,0.49c0.28,0.32,0.42,0.71,0.42,1.16
		c0,0.45-0.14,0.85-0.42,1.17C417.95,519.17,417.61,519.34,417.22,519.34z M411.09,521.69c-0.39,0-0.73,0.16-1.01,0.49
		c-0.28,0.32-0.42,0.72-0.42,1.17v11.33c0,0.45,0.14,0.85,0.42,1.17c0.28,0.32,0.62,0.49,1.01,0.49c0.39,0,0.73-0.16,1.01-0.49
		c0.28-0.32,0.42-0.72,0.42-1.17v-11.33c0-0.45-0.14-0.84-0.42-1.17C411.83,521.85,411.48,521.69,411.09,521.69z M390.36,519.34
		h8.58c0.39,0,0.73-0.16,1.01-0.49c0.28-0.32,0.42-0.72,0.42-1.17c0-0.45-0.14-0.84-0.42-1.16c-0.28-0.32-0.62-0.49-1.01-0.49h-8.58
		c-1.41,0-2.63,0.58-3.62,1.73c-0.99,1.15-1.49,2.55-1.49,4.18s0.5,3.03,1.49,4.17c0.99,1.15,2.21,1.73,3.62,1.73h4.9
		c0.63,0,1.15,0.25,1.59,0.76c0.44,0.51,0.66,1.11,0.66,1.83c0,0.73-0.21,1.32-0.66,1.84c-0.44,0.51-0.96,0.76-1.59,0.76h-8.58
		c-0.39,0-0.73,0.16-1.01,0.49c-0.28,0.32-0.42,0.72-0.42,1.17c0,0.45,0.14,0.85,0.42,1.17c0.28,0.32,0.62,0.49,1.01,0.49h8.58
		c1.41,0,2.62-0.58,3.62-1.73c0.99-1.14,1.49-2.55,1.49-4.18c0-1.62-0.5-3.03-1.49-4.18c-0.99-1.14-2.21-1.73-3.62-1.73h-4.9
		c-0.63,0-1.15-0.25-1.59-0.76c-0.44-0.51-0.66-1.11-0.66-1.83c0-0.72,0.22-1.32,0.66-1.83
		C389.21,519.59,389.73,519.34,390.36,519.34z M436.51,516.03h-12.26c-0.39,0-0.73,0.17-1.01,0.49c-0.28,0.32-0.42,0.71-0.42,1.16
		c0,0.45,0.14,0.85,0.42,1.17c0.28,0.32,0.62,0.49,1.01,0.49h12.26c0.39,0,0.73-0.16,1.01-0.49c0.28-0.32,0.42-0.72,0.42-1.17
		c0-0.45-0.14-0.84-0.42-1.16C437.24,516.19,436.9,516.03,436.51,516.03z M454.66,517.75c-0.99-1.15-2.21-1.73-3.62-1.73h-8.58
		c-0.39,0-0.73,0.17-1.01,0.49c-0.28,0.32-0.42,0.71-0.42,1.16c0,0.45,0.14,0.85,0.42,1.17c0.28,0.32,0.62,0.49,1.01,0.49h8.58
		c0.63,0,1.15,0.25,1.59,0.76c0.44,0.51,0.66,1.11,0.66,1.83c0,0.72-0.21,1.32-0.66,1.83c-0.44,0.51-0.96,0.76-1.59,0.76h-11.46
		c-0.39,0-0.73,0.17-1.01,0.49c-0.28,0.32-0.42,0.72-0.42,1.17v8.5c0,0.45,0.14,0.85,0.42,1.17c0.28,0.32,0.62,0.49,1.01,0.49
		c0.39,0,0.73-0.16,1.01-0.49c0.28-0.32,0.42-0.72,0.42-1.17v-6.84h10.03c1.41,0,2.62-0.58,3.62-1.73c0.99-1.14,1.49-2.55,1.49-4.17
		S455.65,518.9,454.66,517.75z M429.41,533.02h-12.26c-0.39,0-0.73,0.16-1.01,0.49c-0.28,0.32-0.42,0.72-0.42,1.17
		c0,0.45,0.14,0.85,0.42,1.17c0.28,0.32,0.62,0.49,1.01,0.49h12.26c0.39,0,0.73-0.16,1.01-0.49c0.28-0.32,0.42-0.72,0.42-1.17
		c0-0.45-0.14-0.84-0.42-1.17C430.14,533.18,429.8,533.02,429.41,533.02z M432.99,524.52h-12.25c-0.39,0-0.73,0.17-1.01,0.49
		c-0.28,0.32-0.42,0.72-0.42,1.17c0,0.45,0.14,0.85,0.42,1.17c0.28,0.32,0.62,0.49,1.01,0.49h12.25c0.39,0,0.73-0.16,1.01-0.49
		c0.28-0.32,0.42-0.72,0.42-1.17c0-0.45-0.14-0.84-0.42-1.17C433.73,524.69,433.39,524.52,432.99,524.52z"/>
</g>
</svg>
